<svg height="512" viewBox="0 0 64 64" width="512" xmlns="http://www.w3.org/2000/svg"><g id="Filled_outline" data-name="Filled outline"><path d="m50 61h-36a3 3 0 0 1 -3-3v-48a3 3 0 0 1 3-3h11v4h14v-4h11a3 3 0 0 1 3 3v48a3 3 0 0 1 -3 3z" fill="#3e5496"/><path d="m15 11h34v46h-34z" fill="#f4f4e6"/><path d="m25 3h14v8h-14z" fill="#7fcac9"/><path d="m30 6h4v2h-4z" fill="#f4f4e6"/><path d="m22 22a4 4 0 1 0 -4-4 4 4 0 0 0 4 4zm0-6a2 2 0 1 1 -2 2 2 2 0 0 1 2-2z"/><path d="m22 32a4 4 0 1 0 -4-4 4 4 0 0 0 4 4zm0-6a2 2 0 1 1 -2 2 2 2 0 0 1 2-2z"/><path d="m22 52a4 4 0 1 0 -4-4 4 4 0 0 0 4 4zm0-6a2 2 0 1 1 -2 2 2 2 0 0 1 2-2z"/><path d="m50 6h-10v-3a1 1 0 0 0 -1-1h-14a1 1 0 0 0 -1 1v3h-10a4 4 0 0 0 -4 4v48a4 4 0 0 0 4 4h36a4 4 0 0 0 4-4v-48a4 4 0 0 0 -4-4zm-24-2h12v6h-12zm22 8v44h-32v-44zm4 46a2 2 0 0 1 -2 2h-36a2 2 0 0 1 -2-2v-48a2 2 0 0 1 2-2h10v2h-9a1 1 0 0 0 -1 1v46a1 1 0 0 0 1 1h34a1 1 0 0 0 1-1v-46a1 1 0 0 0 -1-1h-9v-2h10a2 2 0 0 1 2 2z"/><path d="m30 6h4v2h-4z"/><path d="m28 18h2v2h-2z"/><path d="m32 18h2v2h-2z"/><path d="m36 18h2v2h-2z"/><path d="m40 18h2v2h-2z"/><path d="m28 28h2v2h-2z"/><path d="m32 28h2v2h-2z"/><path d="m36 28h2v2h-2z"/><path d="m40 28h2v2h-2z"/><path d="m28 38h2v2h-2z"/><path d="m32 38h2v2h-2z"/><path d="m36 38h2v2h-2z"/><path d="m40 38h2v2h-2z"/><path d="m28 48h2v2h-2z"/><path d="m32 48h2v2h-2z"/><path d="m36 48h2v2h-2z"/><path d="m40 48h2v2h-2z"/><path d="m20.917 39.5-1.21-1.21-1.414 1.414 2 2a1 1 0 0 0 .707.296h.055a1 1 0 0 0 .726-.373l4-5-1.562-1.25z"/></g></svg>